<svg width="35" height="35" viewBox="0 0 35 35" fill="none" xmlns="http://www.w3.org/2000/svg">
<circle cx="17.5" cy="17.5" r="17.5" fill="#3B181E"/>
<rect x="9.5" y="9.5" width="17" height="17" rx="3.5" stroke="white"/>
<path d="M22.2107 19.4747C23.0794 20.3166 23.2604 20.7283 23.2897 20.779C23.6483 21.4033 22.892 21.4522 22.892 21.4522L21.4429 21.4741C21.4429 21.4741 21.13 21.5382 20.7209 21.243C20.1781 20.8549 19.4365 19.8425 19.0387 19.9741C18.6345 20.1074 18.7633 21.1687 18.7633 21.1687C18.7633 21.1687 18.7665 21.2986 18.6753 21.4033C18.5742 21.5129 18.3786 21.4707 18.3786 21.4707H17.9613C17.9613 21.4707 16.4145 21.4775 15.1529 20.104C13.7789 18.6074 12.6297 15.8082 12.6297 15.8082C12.6297 15.8082 12.5596 15.631 12.6346 15.5366C12.721 15.4303 12.9541 15.4319 12.9541 15.4319H14.5042C14.5042 15.4319 14.6493 15.4522 14.7536 15.5332C14.8416 15.599 14.8889 15.7238 14.8889 15.7238C14.8889 15.7238 15.0763 16.2452 15.4088 16.8459C16.0559 18.0169 16.3575 18.2733 16.5775 18.1468C16.897 17.9629 16.8008 16.4916 16.8008 16.4916C16.8008 16.4916 16.8073 15.9567 16.6394 15.7188C16.509 15.5332 16.2662 15.4792 16.1586 15.464C16.0706 15.4539 16.214 15.2413 16.3998 15.1468C16.6786 15.0051 17.1724 14.9949 17.7543 15.0017C18.2075 15.0067 18.3786 15 18.3786 15C18.9132 15.135 18.7323 15.658 18.7323 16.9066C18.7323 17.3082 18.6622 17.8718 18.9393 18.0574C19.0583 18.14 19.4854 18.1519 20.2107 16.8611C20.5562 16.2486 20.8285 15.6732 20.8285 15.6732C20.8285 15.6732 20.8871 15.5433 20.9735 15.4893C21.0648 15.4319 21.1854 15.4319 21.1854 15.4319L22.817 15.4404C22.817 15.4404 23.3076 15.3763 23.3859 15.6091C23.469 15.8521 23.1854 16.2773 22.5204 17.207C21.425 18.734 21.3028 18.5922 22.2107 19.4747Z" fill="white"/>
</svg>
