<svg width="35" height="35" viewBox="0 0 35 35" fill="none" xmlns="http://www.w3.org/2000/svg">
<circle cx="17.5" cy="17.5" r="17.5" fill="#3B181E"/>
<path fill-rule="evenodd" clip-rule="evenodd" d="M16.7272 13.5685C16.6415 13.1567 16.4756 13.1172 16.325 13.0826C16.2024 13.0533 16.0612 13.0263 15.92 12.9994C15.7806 12.9727 15.5398 12.9852 15.3025 13.1775C15.0639 13.3676 14.4111 13.8156 14.1964 14.9395C13.982 16.0614 14.5344 17.2929 14.6099 17.4651C14.6875 17.6357 15.5924 20.2747 17.5682 21.6008C19.2113 22.7017 19.6043 22.6209 19.9984 22.6573C20.3946 22.6921 21.357 22.3441 21.635 21.844C21.9127 21.3458 21.9999 20.8891 21.9659 20.7833C21.932 20.6774 21.8016 20.5941 21.6108 20.4388C21.4218 20.2839 20.4866 19.5345 20.3061 19.4201C20.127 19.308 19.993 19.2434 19.8084 19.4439C19.6238 19.6443 19.1193 20.0817 18.9665 20.2103C18.8137 20.3388 18.6881 20.3343 18.497 20.1809C18.308 20.026 17.6725 19.6553 17.0125 18.7227C16.4989 17.9974 16.2162 17.17 16.1362 16.9171C16.0559 16.6661 16.1894 16.563 16.3176 16.4687C16.4329 16.3855 16.5813 16.2424 16.7131 16.1293C16.8431 16.0158 16.8959 15.9285 16.9965 15.79C17.0953 15.651 17.0859 15.511 17.0555 15.3863C17.0251 15.2617 16.8292 14.0555 16.7272 13.5685Z" fill="white"/>
<path d="M11.0812 23.7562L11.5555 23.9143L11.6436 23.6502L11.4654 23.4362L11.0812 23.7562ZM10 26.9997L9.52566 26.8416L9.2464 27.6793L10.1085 27.4878L10 26.9997ZM14.0648 26.0964L14.2837 25.6468L14.1268 25.5704L13.9564 25.6083L14.0648 26.0964ZM26.5 18C26.5 22.6944 22.6944 26.5 18 26.5V27.5C23.2467 27.5 27.5 23.2467 27.5 18H26.5ZM18 9.5C22.6944 9.5 26.5 13.3056 26.5 18H27.5C27.5 12.7533 23.2467 8.5 18 8.5V9.5ZM9.5 18C9.5 13.3056 13.3056 9.5 18 9.5V8.5C12.7533 8.5 8.5 12.7533 8.5 18H9.5ZM11.4654 23.4362C10.2379 21.9625 9.5 20.0681 9.5 18H8.5C8.5 20.3105 9.32543 22.4294 10.697 24.0762L11.4654 23.4362ZM10.4743 27.1578L11.5555 23.9143L10.6068 23.5981L9.52566 26.8416L10.4743 27.1578ZM13.9564 25.6083L9.89153 26.5116L10.1085 27.4878L14.1733 26.5845L13.9564 25.6083ZM18 26.5C16.6664 26.5 15.4058 26.1932 14.2837 25.6468L13.8459 26.5459C15.1014 27.1573 16.5114 27.5 18 27.5V26.5Z" fill="white"/>
</svg>
